<svg xmlns="http://www.w3.org/2000/svg" version="1.1" xmlns:xlink="http://www.w3.org/1999/xlink" xmlns:svgjs="http://svgjs.com/svgjs" width="512" height="512" x="0" y="0" viewBox="0 0 512 512" style="enable-background:new 0 0 512 512" xml:space="preserve" class=""><g><path xmlns="http://www.w3.org/2000/svg" d="m264.28125 479.652344c0 13.722656-11.125 24.847656-24.847656 24.847656h-49.703125c-13.722657 0-24.847657-11.125-24.847657-24.847656v-14.402344h99.398438zm0 0" fill="#295d76" data-original="#295d76"></path><path xmlns="http://www.w3.org/2000/svg" d="m242.28125 465.25v14.402344c0 13.722656-11.125 24.847656-24.847656 24.847656h22c13.722656 0 24.847656-11.125 24.847656-24.847656v-14.402344zm0 0" fill="#1f4658" data-original="#1f4658"></path><path xmlns="http://www.w3.org/2000/svg" d="m162.597656 471.367188h103.96875c3.3125 0 6-2.683594 6-6v-93.402344h-115.96875v93.402344c0 3.316406 2.6875 6 6 6zm0 0" fill="#e6f1fa" data-original="#e6f1fa"></path><path xmlns="http://www.w3.org/2000/svg" d="m250.566406 371.964844v93.402344c0 3.316406-2.6875 6-6 6h22c3.3125 0 6-2.683594 6-6v-93.402344zm0 0" fill="#cee4f7" data-original="#cee4f7"></path><path xmlns="http://www.w3.org/2000/svg" d="m355.398438 214.582031c0-77.160156-62.0625-139.824219-138.988282-140.804687-78.011718-.992188-142.433594 62.398437-142.644531 140.417968-.148437 55.949219 32.332031 104.332032 79.488281 127.183594 2.054688.992188 3.34375 3.089844 3.34375 5.375v25.210938h115.96875v-25.214844c0-2.289062 1.300782-4.382812 3.363282-5.382812 47.035156-22.800782 79.46875-71.003907 79.46875-126.785157zm0 0" fill="#feda43" data-original="#feda43"></path><path xmlns="http://www.w3.org/2000/svg" d="m216.410156 73.777344c-4.304687-.054688-8.5625.097656-12.777344.425781 72.605469 5.640625 129.765626 66.328125 129.765626 140.378906 0 55.78125-32.433594 103.984375-79.46875 126.785157-2.0625 1-3.363282 3.09375-3.363282 5.386718v25.214844h22v-25.214844c0-2.292968 1.300782-4.386718 3.363282-5.386718 47.035156-22.800782 79.46875-71.003907 79.46875-126.785157 0-77.160156-62.058594-139.824219-138.988282-140.804687zm0 0" fill="#fdb53e" data-original="#fdb53e"></path><path xmlns="http://www.w3.org/2000/svg" d="m214.582031 48.132812c4.144531 0 7.5-3.359374 7.5-7.5v-33.132812c0-4.140625-3.355469-7.5-7.5-7.5s-7.5 3.359375-7.5 7.5v33.132812c0 4.140626 3.355469 7.5 7.5 7.5zm0 0" fill="#000000" data-original="#000000"></path><path xmlns="http://www.w3.org/2000/svg" d="m86.277344 96.882812c1.464844 1.464844 3.382812 2.199219 5.304687 2.199219 1.917969 0 3.839844-.734375 5.304688-2.199219 2.925781-2.929687 2.925781-7.675781 0-10.605468l-23.429688-23.425782c-2.929687-2.929687-7.679687-2.929687-10.605469 0-2.929687 2.925782-2.929687 7.675782 0 10.605469zm0 0" fill="#000000" data-original="#000000"></path><path xmlns="http://www.w3.org/2000/svg" d="m40.632812 207.082031h-33.132812c-4.144531 0-7.5 3.359375-7.5 7.5s3.355469 7.5 7.5 7.5h33.132812c4.140626 0 7.5-3.359375 7.5-7.5s-3.359374-7.5-7.5-7.5zm0 0" fill="#000000" data-original="#000000"></path><path xmlns="http://www.w3.org/2000/svg" d="m86.277344 332.28125-23.429688 23.425781c-2.929687 2.929688-2.929687 7.679688 0 10.605469 1.464844 1.464844 3.382813 2.199219 5.304688 2.199219 1.917968 0 3.839844-.734375 5.300781-2.199219l23.429687-23.425781c2.929688-2.929688 2.929688-7.675781.003907-10.605469-2.929688-2.929688-7.679688-2.929688-10.609375 0zm0 0" fill="#000000" data-original="#000000"></path><path xmlns="http://www.w3.org/2000/svg" d="m342.886719 332.28125c-2.929688-2.929688-7.675781-2.929688-10.605469 0s-2.929688 7.675781 0 10.605469l23.425781 23.425781c1.464844 1.464844 3.386719 2.199219 5.304688 2.199219s3.839843-.734375 5.304687-2.199219c2.929688-2.925781 2.929688-7.675781 0-10.605469zm0 0" fill="#000000" data-original="#000000"></path><path xmlns="http://www.w3.org/2000/svg" d="m421.664062 207.082031h-33.132812c-4.140625 0-7.5 3.359375-7.5 7.5 0 4.144531 3.359375 7.5 7.5 7.5h33.132812c4.144532 0 7.5-3.355469 7.5-7.5 0-4.140625-3.355468-7.5-7.5-7.5zm0 0" fill="#000000" data-original="#000000"></path><path xmlns="http://www.w3.org/2000/svg" d="m355.710938 62.851562-23.429688 23.425782c-2.929688 2.929687-2.929688 7.675781-.003906 10.605468 1.464844 1.464844 3.386718 2.199219 5.304687 2.199219 1.921875 0 3.839844-.734375 5.304688-2.199219l23.429687-23.425781c2.929688-2.929687 2.929688-7.679687 0-10.605469-2.929687-2.929687-7.679687-2.929687-10.605468 0zm0 0" fill="#000000" data-original="#000000"></path><path xmlns="http://www.w3.org/2000/svg" d="m362.898438 214.582031c0-81.78125-66.535157-148.316406-148.316407-148.316406-33.757812 0-66.789062 11.644531-93.019531 32.789063-3.222656 2.601562-3.730469 7.320312-1.128906 10.546874 2.597656 3.222657 7.320312 3.730469 10.542968 1.132813 23.914063-19.28125 52.824219-29.46875 83.605469-29.46875 73.511719 0 133.316407 59.804687 133.316407 133.316406 0 52.269531-30.785157 99.972657-78.425782 121.527344-2.683594 1.214844-4.40625 3.886719-4.40625 6.835937v21.519532h-26.417968v-67.832032h9.066406c13.269531 0 24.0625-10.796874 24.0625-24.066406 0-13.269531-10.792969-24.066406-24.0625-24.066406-13.273438 0-24.066406 10.796875-24.066406 24.066406v9.066406h-18.132813v-9.066406c0-13.269531-10.796875-24.066406-24.066406-24.066406s-24.066407 10.796875-24.066407 24.066406c0 13.269532 10.796876 24.066406 24.066407 24.066406h9.066406v67.832032h-26.417969v-21.519532c0-2.949218-1.722656-5.621093-4.40625-6.835937-47.640625-21.550781-78.425781-69.253906-78.425781-121.527344 0-30.421875 10.511719-60.175781 29.605469-83.777343 2.605468-3.21875 2.105468-7.941407-1.113282-10.546876-3.222656-2.605468-7.945312-2.105468-10.550781 1.113282-21.242187 26.265625-32.941406 59.367187-32.941406 93.210937 0 56.519531 32.351563 108.242188 82.832031 133.113281v16.769532h-.78125c-4.144531 0-7.5 3.359375-7.5 7.5 0 4.144531 3.355469 7.5 7.5 7.5h.78125v91.902344c0 1.988281.789063 3.898437 2.195313 5.304687s3.316406 2.195313 5.304687 2.195313h.824219c-.027344.257812-.039063.519531-.039063.78125 0 17.839843 14.511719 32.351562 32.347657 32.351562h49.703125c17.835937 0 32.347656-14.511719 32.347656-32.351562 0-.261719-.011719-.523438-.039062-.78125h.824218c4.140625 0 7.5-3.355469 7.5-7.5v-91.902344h.78125c4.144532 0 7.5-3.355469 7.5-7.5 0-4.140625-3.355468-7.5-7.5-7.5h-.78125v-16.769532c50.480469-24.871093 82.832032-76.59375 82.832032-133.113281zm-198.800782 249.285157v-9.851563h100.96875v9.851563zm0-59.550782h100.96875v9.851563h-100.96875zm0 34.699219v-9.851563h100.96875v9.851563zm100.96875-49.699219h-100.964844v-9.851562h33.90625.007813.011719 33.113281.007813.011718 33.90625zm-26.417968-116.75c0-4.996094 4.066406-9.0625 9.066406-9.0625s9.0625 4.066406 9.0625 9.0625c0 5-4.0625 9.066406-9.0625 9.066406h-9.066406zm-57.199219 9.066406c-5 0-9.066407-4.066406-9.066407-9.066406 0-4.996094 4.066407-9.0625 9.066407-9.0625s9.066406 4.066406 9.066406 9.0625v9.066406zm24.066406 15h18.132813v67.832032h-18.132813zm51.265625 183.015626c0 9.566406-7.78125 17.351562-17.347656 17.351562h-49.703125c-9.566407 0-17.347657-7.78125-17.347657-17.351562 0-.261719-.015624-.523438-.042968-.78125h84.480468c-.023437.257812-.039062.519531-.039062.78125zm0 0" fill="#000000" data-original="#000000"></path></g></svg>