<svg xmlns="http://www.w3.org/2000/svg" version="1.1" xmlns:xlink="http://www.w3.org/1999/xlink" xmlns:svgjs="http://svgjs.com/svgjs" width="512" height="512" x="0" y="0" viewBox="0 0 512 512" style="enable-background:new 0 0 512 512" xml:space="preserve" class=""><g>
<path xmlns="http://www.w3.org/2000/svg" style="" d="M494.345,39.724H17.655C7.904,39.724,0,47.629,0,57.379v282.483h512V57.379  C512,47.629,504.096,39.724,494.345,39.724z M485.517,119.172v194.207H26.483V119.172V66.207h459.034V119.172z" fill="#464655" data-original="#464655"></path>
<path xmlns="http://www.w3.org/2000/svg" style="" d="M26.483,313.379h459.034V119.172H26.483V313.379z M388.414,163.31v-8.828  c0-4.875,3.953-8.828,8.828-8.828h52.966c4.875,0,8.828,3.953,8.828,8.828v8.828v114.759c0,4.875-3.953,8.828-8.828,8.828h-52.966  c-4.875,0-8.828-3.953-8.828-8.828V163.31z M291.31,163.31v-8.828c0-4.875,3.953-8.828,8.828-8.828h52.966  c4.875,0,8.828,3.953,8.828,8.828v8.828v114.759c0,4.875-3.953,8.828-8.828,8.828h-52.966c-4.875,0-8.828-3.953-8.828-8.828V163.31z   M194.207,163.31v-8.828c0-4.875,3.953-8.828,8.828-8.828H256c4.875,0,8.828,3.953,8.828,8.828v8.828v114.759  c0,4.875-3.953,8.828-8.828,8.828h-52.966c-4.875,0-8.828-3.953-8.828-8.828V163.31z M52.966,163.31v-8.828  c0-4.875,3.953-8.828,8.828-8.828h97.103c4.875,0,8.828,3.953,8.828,8.828v8.828v114.759c0,4.875-3.953,8.828-8.828,8.828H61.793  c-4.875,0-8.828-3.953-8.828-8.828V163.31z" fill="#ffffff" data-original="#ffffff"></path>
<path xmlns="http://www.w3.org/2000/svg" style="" d="M0,375.172c0,9.75,7.904,17.655,17.655,17.655h167.724h141.241h167.724  c9.751,0,17.655-7.905,17.655-17.655v-35.31H0V375.172z M256,353.103c7.313,0,13.241,5.929,13.241,13.241  s-5.929,13.241-13.241,13.241c-7.313,0-13.241-5.929-13.241-13.241S248.687,353.103,256,353.103z" fill="#bec8dc" data-original="#bec8dc"></path>
<polygon xmlns="http://www.w3.org/2000/svg" style="" points="177.655,454.621 334.345,454.621 328.828,410.483 183.172,410.483 " fill="#afbbd0" data-original="#afbbd0"></polygon>
<path xmlns="http://www.w3.org/2000/svg" style="" d="M176.552,454.621c-4.875,0-8.828,3.953-8.828,8.828s3.953,8.828,8.828,8.828h158.897  c4.875,0,8.828-3.953,8.828-8.828s-3.953-8.828-8.828-8.828h-1.103h-156.69H176.552z" fill="#bec8dc" data-original="#bec8dc"></path>
<polygon xmlns="http://www.w3.org/2000/svg" style="" points="183.172,410.483 328.828,410.483 326.621,392.828 185.379,392.828 " fill="#96a5b9" data-original="#96a5b9"></polygon>
<path xmlns="http://www.w3.org/2000/svg" style="" d="M26.483,119.172h459.034V66.207H26.483V119.172z M423.724,83.862h35.31  c4.875,0,8.828,3.953,8.828,8.828c0,4.875-3.953,8.828-8.828,8.828h-35.31c-4.875,0-8.828-3.953-8.828-8.828  C414.897,87.815,418.849,83.862,423.724,83.862z M353.103,83.862h35.31c4.875,0,8.828,3.953,8.828,8.828  c0,4.875-3.953,8.828-8.828,8.828h-35.31c-4.875,0-8.828-3.953-8.828-8.828C344.276,87.815,348.228,83.862,353.103,83.862z   M282.483,83.862h35.31c4.875,0,8.828,3.953,8.828,8.828c0,4.875-3.953,8.828-8.828,8.828h-35.31c-4.875,0-8.828-3.953-8.828-8.828  C273.655,87.815,277.608,83.862,282.483,83.862z M211.862,83.862h35.31c4.875,0,8.828,3.953,8.828,8.828  c0,4.875-3.953,8.828-8.828,8.828h-35.31c-4.875,0-8.828-3.953-8.828-8.828C203.034,87.815,206.987,83.862,211.862,83.862z   M141.241,83.862h35.31c4.875,0,8.828,3.953,8.828,8.828c0,4.875-3.953,8.828-8.828,8.828h-35.31c-4.875,0-8.828-3.953-8.828-8.828  C132.414,87.815,136.366,83.862,141.241,83.862z M52.966,83.862h52.966c4.875,0,8.828,3.953,8.828,8.828  c0,4.875-3.953,8.828-8.828,8.828H52.966c-4.875,0-8.828-3.953-8.828-8.828C44.138,87.815,48.09,83.862,52.966,83.862z" fill="#ff6469" data-original="#ff6469"></path>
<path xmlns="http://www.w3.org/2000/svg" style="" d="M52.966,101.517h52.966c4.875,0,8.828-3.953,8.828-8.828c0-4.875-3.953-8.828-8.828-8.828H52.966  c-4.875,0-8.828,3.953-8.828,8.828C44.138,97.565,48.09,101.517,52.966,101.517z" fill="#ffdc69" data-original="#ffdc69"></path>
<g xmlns="http://www.w3.org/2000/svg">
	<path style="" d="M141.241,101.517h35.31c4.875,0,8.828-3.953,8.828-8.828c0-4.875-3.953-8.828-8.828-8.828h-35.31   c-4.875,0-8.828,3.953-8.828,8.828C132.414,97.565,136.366,101.517,141.241,101.517z" fill="#d2555f" data-original="#d2555f"></path>
	<path style="" d="M211.862,101.517h35.31c4.875,0,8.828-3.953,8.828-8.828c0-4.875-3.953-8.828-8.828-8.828h-35.31   c-4.875,0-8.828,3.953-8.828,8.828C203.034,97.565,206.987,101.517,211.862,101.517z" fill="#d2555f" data-original="#d2555f"></path>
	<path style="" d="M282.483,101.517h35.31c4.875,0,8.828-3.953,8.828-8.828c0-4.875-3.953-8.828-8.828-8.828h-35.31   c-4.875,0-8.828,3.953-8.828,8.828C273.655,97.565,277.608,101.517,282.483,101.517z" fill="#d2555f" data-original="#d2555f"></path>
	<path style="" d="M353.103,101.517h35.31c4.875,0,8.828-3.953,8.828-8.828c0-4.875-3.953-8.828-8.828-8.828h-35.31   c-4.875,0-8.828,3.953-8.828,8.828C344.276,97.565,348.228,101.517,353.103,101.517z" fill="#d2555f" data-original="#d2555f"></path>
	<path style="" d="M423.724,101.517h35.31c4.875,0,8.828-3.953,8.828-8.828c0-4.875-3.953-8.828-8.828-8.828h-35.31   c-4.875,0-8.828,3.953-8.828,8.828C414.897,97.565,418.849,101.517,423.724,101.517z" fill="#d2555f" data-original="#d2555f"></path>
</g>
<g xmlns="http://www.w3.org/2000/svg">
	<path style="" d="M61.793,286.897h97.103c4.875,0,8.828-3.953,8.828-8.828V163.31c0,4.875-3.953,8.828-8.828,8.828   H61.793c-4.875,0-8.828-3.953-8.828-8.828v114.759C52.966,282.944,56.918,286.897,61.793,286.897z" fill="#dee3ed" data-original="#dee3ed"></path>
	<path style="" d="M203.034,286.897H256c4.875,0,8.828-3.953,8.828-8.828V163.31c0,4.875-3.953,8.828-8.828,8.828   h-52.966c-4.875,0-8.828-3.953-8.828-8.828v114.759C194.207,282.944,198.159,286.897,203.034,286.897z" fill="#dee3ed" data-original="#dee3ed"></path>
	<path style="" d="M300.138,286.897h52.966c4.875,0,8.828-3.953,8.828-8.828V163.31c0,4.875-3.953,8.828-8.828,8.828   h-52.966c-4.875,0-8.828-3.953-8.828-8.828v114.759C291.31,282.944,295.263,286.897,300.138,286.897z" fill="#dee3ed" data-original="#dee3ed"></path>
	<path style="" d="M397.241,286.897h52.966c4.875,0,8.828-3.953,8.828-8.828V163.31c0,4.875-3.953,8.828-8.828,8.828   h-52.966c-4.875,0-8.828-3.953-8.828-8.828v114.759C388.414,282.944,392.366,286.897,397.241,286.897z" fill="#dee3ed" data-original="#dee3ed"></path>
</g>
<path xmlns="http://www.w3.org/2000/svg" style="" d="M61.793,172.138h97.103c4.875,0,8.828-3.953,8.828-8.828v-8.828c0-4.875-3.953-8.828-8.828-8.828  H61.793c-4.875,0-8.828,3.953-8.828,8.828v8.828C52.966,168.185,56.918,172.138,61.793,172.138z" fill="#ffdc69" data-original="#ffdc69"></path>
<path xmlns="http://www.w3.org/2000/svg" style="" d="M203.034,172.138H256c4.875,0,8.828-3.953,8.828-8.828v-8.828c0-4.875-3.953-8.828-8.828-8.828  h-52.966c-4.875,0-8.828,3.953-8.828,8.828v8.828C194.207,168.185,198.159,172.138,203.034,172.138z" fill="#b4e173" data-original="#b4e173"></path>
<path xmlns="http://www.w3.org/2000/svg" style="" d="M300.138,172.138h52.966c4.875,0,8.828-3.953,8.828-8.828v-8.828c0-4.875-3.953-8.828-8.828-8.828  h-52.966c-4.875,0-8.828,3.953-8.828,8.828v8.828C291.31,168.185,295.263,172.138,300.138,172.138z" fill="#ff969b" data-original="#ff969b"></path>
<path xmlns="http://www.w3.org/2000/svg" style="" d="M397.241,172.138h52.966c4.875,0,8.828-3.953,8.828-8.828v-8.828c0-4.875-3.953-8.828-8.828-8.828  h-52.966c-4.875,0-8.828,3.953-8.828,8.828v8.828C388.414,168.185,392.366,172.138,397.241,172.138z" fill="#a0dcf0" data-original="#a0dcf0"></path>
<circle xmlns="http://www.w3.org/2000/svg" style="" cx="256" cy="366.345" r="13.241" fill="#96a5b9" data-original="#96a5b9"></circle>
<g xmlns="http://www.w3.org/2000/svg">
</g>
<g xmlns="http://www.w3.org/2000/svg">
</g>
<g xmlns="http://www.w3.org/2000/svg">
</g>
<g xmlns="http://www.w3.org/2000/svg">
</g>
<g xmlns="http://www.w3.org/2000/svg">
</g>
<g xmlns="http://www.w3.org/2000/svg">
</g>
<g xmlns="http://www.w3.org/2000/svg">
</g>
<g xmlns="http://www.w3.org/2000/svg">
</g>
<g xmlns="http://www.w3.org/2000/svg">
</g>
<g xmlns="http://www.w3.org/2000/svg">
</g>
<g xmlns="http://www.w3.org/2000/svg">
</g>
<g xmlns="http://www.w3.org/2000/svg">
</g>
<g xmlns="http://www.w3.org/2000/svg">
</g>
<g xmlns="http://www.w3.org/2000/svg">
</g>
<g xmlns="http://www.w3.org/2000/svg">
</g>
</g></svg>