<svg xmlns="http://www.w3.org/2000/svg" version="1.1" xmlns:xlink="http://www.w3.org/1999/xlink" xmlns:svgjs="http://svgjs.com/svgjs" width="512" height="512" x="0" y="0" viewBox="0 0 512 512" style="enable-background:new 0 0 512 512" xml:space="preserve" class=""><g>
<polygon xmlns="http://www.w3.org/2000/svg" style="" points="306.161,335.555 318.743,348.142 333.453,362.775 339.121,368.484 368.471,339.113   335.562,306.153 " fill="#5d6d7e" data-original="#5d6d7e" class=""></polygon>
<path xmlns="http://www.w3.org/2000/svg" style="" d="M398.4,338.918l101.284,101.279c7.619,7.598,12.347,18.145,12.316,29.745  c0,11.62-4.698,22.157-12.316,29.786c-7.598,7.588-18.12,12.27-29.74,12.27c-11.615,0-22.126-4.682-29.745-12.296L338.921,398.413  L398.4,338.918z" fill="#ff8e31" data-original="#ff8e31"></path>
<path xmlns="http://www.w3.org/2000/svg" style="" d="M384.422,352.917L384.422,352.917l8.23-8.246l101.294,101.294c6.395,6.4,9.912,14.912,9.907,23.972  c0,9.085-3.528,17.613-9.907,24.023c-1.165,1.119-2.657,1.682-4.127,1.682c-1.503,0-2.985-0.563-4.142-1.697  c-2.255-2.286-2.255-5.947,0-8.215c4.224-4.209,6.533-9.846,6.533-15.808c0.015-5.937-2.307-11.533-6.502-15.721L384.422,352.917z" fill="#fece59" data-original="#fece59"></path>
<g xmlns="http://www.w3.org/2000/svg">
	<path style="" d="M338.916,398.413l59.484-59.5l-4.436-4.447c-2.678-2.688-6.339-4.321-10.409-4.321   c-4.096,0-7.767,1.626-10.419,4.301l-38.682,38.702c-2.657,2.637-4.316,6.308-4.316,10.409c0,4.04,1.656,7.757,4.316,10.378   L338.916,398.413z" fill="#34495e" data-original="#34495e" class=""></path>
	<path style="" d="M0,190.162C0,85.156,85.143,0.003,190.17,0.003c105.037,0,190.175,85.158,190.175,190.159   c0,105.037-85.148,190.175-190.175,190.2C85.143,380.337,0,295.196,0,190.162z" fill="#34495e" data-original="#34495e" class=""></path>
</g>
<path xmlns="http://www.w3.org/2000/svg" style="" d="M190.17,359.757c93.635,0,169.582-75.919,169.582-169.597c0-93.624-75.945-169.567-169.582-169.567  C96.52,20.595,20.582,96.533,20.582,190.162C20.582,283.838,96.52,359.757,190.17,359.757z" fill="#5d6d7e" data-original="#5d6d7e" class=""></path>
<path xmlns="http://www.w3.org/2000/svg" style="" d="M190.17,346.184c86.147,0,156.006-69.832,156.006-156.022c0-86.126-69.862-156.001-156.006-156.001  S34.156,104.036,34.156,190.162C34.156,276.347,104.008,346.184,190.17,346.184z" fill="#cee2f2" data-original="#cee2f2" class=""></path>
<g xmlns="http://www.w3.org/2000/svg">
	<path style="" d="M194.273,59.774c-2.657-3.942-7.224-6.41-12.25-6.124c-21.535,1.308-41.887,7.373-60.485,18.171   c-6.548,3.83-8.794,12.27-4.979,18.849c3.814,6.497,12.265,8.809,18.793,4.943c14.835-8.558,31.073-13.42,48.287-14.469   c7.562-0.394,13.379-6.917,12.91-14.474C196.462,64.051,195.584,61.696,194.273,59.774z" fill="#ffffff" data-original="#ffffff" class=""></path>
	<path style="" d="M105.94,105.004c-0.732-1.098-1.687-2.117-2.734-2.985c-5.906-4.831-14.566-3.891-19.341,2.01   c-14.054,17.254-23.726,37.955-27.996,59.986c-5.051,26.166-2.409,52.956,7.624,77.504c2.924,7.076,10.972,10.399,17.992,7.506   c7.04-2.852,10.394-10.87,7.511-17.946c-8-19.576-10.076-40.955-6.013-61.839c3.323-17.587,11.049-34.099,22.259-47.869   C109.14,116.577,109.243,109.85,105.94,105.004z" fill="#ffffff" data-original="#ffffff" class=""></path>
</g>
<g xmlns="http://www.w3.org/2000/svg">
</g>
<g xmlns="http://www.w3.org/2000/svg">
</g>
<g xmlns="http://www.w3.org/2000/svg">
</g>
<g xmlns="http://www.w3.org/2000/svg">
</g>
<g xmlns="http://www.w3.org/2000/svg">
</g>
<g xmlns="http://www.w3.org/2000/svg">
</g>
<g xmlns="http://www.w3.org/2000/svg">
</g>
<g xmlns="http://www.w3.org/2000/svg">
</g>
<g xmlns="http://www.w3.org/2000/svg">
</g>
<g xmlns="http://www.w3.org/2000/svg">
</g>
<g xmlns="http://www.w3.org/2000/svg">
</g>
<g xmlns="http://www.w3.org/2000/svg">
</g>
<g xmlns="http://www.w3.org/2000/svg">
</g>
<g xmlns="http://www.w3.org/2000/svg">
</g>
<g xmlns="http://www.w3.org/2000/svg">
</g>
</g></svg>